<?xml version="1.0" standalone="no"?>
<!DOCTYPE svg PUBLIC "-//W3C//DTD SVG 20010904//EN"
 "http://www.w3.org/TR/2001/REC-SVG-20010904/DTD/svg10.dtd">
<svg version="1.0" xmlns="http://www.w3.org/2000/svg"
 width="120.000000pt" height="120.000000pt" viewBox="0 0 120.000000 120.000000"
 preserveAspectRatio="xMidYMid meet">

<g transform="translate(0.000000,120.000000) scale(0.100000,-0.100000)"
fill="#000000" stroke="none">
<path d="M0 600 l0 -600 600 0 600 0 0 53 c-1 52 -1 52 -16 25 -31 -58 -27
-58 -574 -58 -550 0 -544 -1 -575 60 -13 25 -15 102 -15 530 0 554 -1 548 63
575 l32 14 -57 1 -58 0 0 -600z"/>
<path d="M1137 1185 c17 -7 38 -26 47 -42 l15 -28 1 43 0 42 -47 0 -48 -1 32
-14z"/>
<path d="M522 923 c-5 -10 -42 -112 -82 -228 -40 -115 -88 -252 -106 -303 -19
-51 -34 -95 -34 -98 0 -3 32 -4 72 -2 l72 3 19 65 c10 36 24 71 29 78 8 9 40
12 117 10 l106 -3 25 -78 25 -77 73 0 c55 0 73 3 69 12 -2 7 -50 146 -107 308
-56 162 -106 303 -112 313 -7 14 -22 17 -83 17 -61 0 -76 -3 -83 -17z m158
-360 c0 -9 -22 -13 -79 -13 l-80 0 19 63 c10 34 28 93 41 130 l22 69 39 -119
c20 -65 38 -124 38 -130z"/>
</g>
</svg>
