<?xml version="1.0" standalone="no"?>
<!DOCTYPE svg PUBLIC "-//W3C//DTD SVG 20010904//EN"
 "http://www.w3.org/TR/2001/REC-SVG-20010904/DTD/svg10.dtd">
<svg version="1.0" xmlns="http://www.w3.org/2000/svg"
 width="118.000000pt" height="118.000000pt" viewBox="0 0 118.000000 118.000000"
 preserveAspectRatio="xMidYMid meet">

<g transform="translate(0.000000,118.000000) scale(0.100000,-0.100000)"
fill="#000000" stroke="none">
<path d="M347 913 c-3 -5 -6 -151 -6 -326 l0 -317 172 0 c232 0 289 18 328
104 47 104 5 196 -105 231 -17 5 -15 9 19 29 71 43 91 115 55 194 -15 34 -29
47 -67 64 -42 19 -71 23 -219 26 -95 2 -174 0 -177 -5z m274 -102 c52 -2 84
-61 63 -116 -11 -28 -60 -45 -134 -45 l-70 0 0 78 c0 43 2 81 5 84 3 3 29 4
58 3 29 -2 64 -3 78 -4z m50 -272 c68 -36 64 -121 -8 -158 -12 -6 -58 -11
-102 -11 l-81 0 0 88 c0 49 3 92 8 96 11 12 156 0 183 -15z"/>
</g>
</svg>
