<?xml version="1.0" standalone="no"?>
<!DOCTYPE svg PUBLIC "-//W3C//DTD SVG 20010904//EN"
 "http://www.w3.org/TR/2001/REC-SVG-20010904/DTD/svg10.dtd">
<svg version="1.0" xmlns="http://www.w3.org/2000/svg"
 width="118.000000pt" height="117.000000pt" viewBox="0 0 118.000000 117.000000"
 preserveAspectRatio="xMidYMid meet">

<g transform="translate(0.000000,117.000000) scale(0.100000,-0.100000)"
fill="#000000" stroke="none">
<path d="M529 907 c-74 -17 -133 -57 -170 -115 -117 -184 -51 -455 127 -521
107 -40 245 -21 321 44 43 37 83 109 83 150 0 25 -1 26 -62 23 -62 -3 -63 -4
-80 -40 -36 -76 -136 -110 -208 -70 -117 64 -134 291 -30 386 36 33 45 36 98
36 49 0 63 -4 94 -30 20 -17 42 -46 48 -65 l12 -35 64 0 c62 0 64 1 64 25 0
67 -71 160 -148 193 -63 27 -144 34 -213 19z"/>
</g>
</svg>
