<?xml version="1.0" standalone="no"?>
<!DOCTYPE svg PUBLIC "-//W3C//DTD SVG 20010904//EN"
 "http://www.w3.org/TR/2001/REC-SVG-20010904/DTD/svg10.dtd">
<svg version="1.0" xmlns="http://www.w3.org/2000/svg"
 width="118.000000pt" height="118.000000pt" viewBox="0 0 118.000000 118.000000"
 preserveAspectRatio="xMidYMid meet">

<g transform="translate(0.000000,118.000000) scale(0.100000,-0.100000)"
fill="#000000" stroke="none">
<path d="M328 914 c-5 -4 -8 -151 -8 -326 l0 -320 178 4 c170 3 179 4 228 30
59 31 95 70 127 137 19 39 22 63 22 156 0 129 -17 178 -84 243 -62 60 -110 73
-296 79 -88 3 -163 2 -167 -3z m324 -136 c55 -31 80 -76 86 -156 11 -162 -58
-241 -210 -242 l-68 0 0 210 0 210 76 0 c60 0 85 -5 116 -22z"/>
</g>
</svg>
