<?xml version="1.0" standalone="no"?>
<!DOCTYPE svg PUBLIC "-//W3C//DTD SVG 20010904//EN"
 "http://www.w3.org/TR/2001/REC-SVG-20010904/DTD/svg10.dtd">
<svg version="1.0" xmlns="http://www.w3.org/2000/svg"
 width="118.000000pt" height="118.000000pt" viewBox="0 0 118.000000 118.000000"
 preserveAspectRatio="xMidYMid meet">

<g transform="translate(0.000000,118.000000) scale(0.100000,-0.100000)"
fill="#000000" stroke="none">
<path d="M370 595 l0 -325 215 0 215 0 0 55 0 55 -145 0 c-80 0 -145 3 -145 8
0 4 -2 40 -3 80 l-3 72 138 0 138 0 0 55 0 54 -136 3 -136 3 -1 70 -2 70 145
5 145 5 0 55 0 55 -212 3 -213 2 0 -325z"/>
</g>
</svg>
