<?xml version="1.0" standalone="no"?>
<!DOCTYPE svg PUBLIC "-//W3C//DTD SVG 20010904//EN"
 "http://www.w3.org/TR/2001/REC-SVG-20010904/DTD/svg10.dtd">
<svg version="1.0" xmlns="http://www.w3.org/2000/svg"
 width="118.000000pt" height="118.000000pt" viewBox="0 0 118.000000 118.000000"
 preserveAspectRatio="xMidYMid meet">

<g transform="translate(0.000000,118.000000) scale(0.100000,-0.100000)"
fill="#000000" stroke="none">
<path d="M397 914 c-4 -4 -7 -151 -7 -326 l0 -318 70 0 70 0 0 125 0 125 130
0 130 0 0 55 0 55 -130 0 -130 0 0 85 0 85 133 0 c72 0 138 4 145 9 9 5 12 25
10 57 l-3 49 -206 3 c-113 1 -208 -1 -212 -4z"/>
</g>
</svg>
