<?xml version="1.0" standalone="no"?>
<!DOCTYPE svg PUBLIC "-//W3C//DTD SVG 20010904//EN"
 "http://www.w3.org/TR/2001/REC-SVG-20010904/DTD/svg10.dtd">
<svg version="1.0" xmlns="http://www.w3.org/2000/svg"
 width="118.000000pt" height="118.000000pt" viewBox="0 0 118.000000 118.000000"
 preserveAspectRatio="xMidYMid meet">

<g transform="translate(0.000000,118.000000) scale(0.100000,-0.100000)"
fill="#000000" stroke="none">
<path d="M530 917 c-103 -24 -151 -64 -199 -167 -23 -48 -26 -68 -26 -155 0
-89 3 -107 29 -162 54 -117 145 -173 281 -173 183 0 285 104 285 289 l0 66
-136 -3 -135 -3 3 -47 3 -47 68 -3 67 -3 -6 -27 c-26 -117 -179 -149 -266 -56
-85 93 -71 304 25 363 43 27 131 29 167 4 34 -23 60 -53 60 -70 0 -10 18 -13
70 -13 67 0 70 1 70 23 0 30 -53 111 -90 137 -67 47 -181 67 -270 47z"/>
</g>
</svg>
