<?xml version="1.0" standalone="no"?>
<!DOCTYPE svg PUBLIC "-//W3C//DTD SVG 20010904//EN"
 "http://www.w3.org/TR/2001/REC-SVG-20010904/DTD/svg10.dtd">
<svg version="1.0" xmlns="http://www.w3.org/2000/svg"
 width="120.000000pt" height="119.000000pt" viewBox="0 0 120.000000 119.000000"
 preserveAspectRatio="xMidYMid meet">

<g transform="translate(0.000000,119.000000) scale(0.100000,-0.100000)"
fill="#000000" stroke="none">
<path d="M0 595 l0 -595 48 0 47 1 -27 15 c-58 31 -58 27 -58 574 0 556 -1
548 65 576 51 21 999 21 1050 0 66 -28 65 -20 65 -576 0 -547 0 -543 -58 -574
l-27 -15 48 -1 47 0 0 595 0 595 -600 0 -600 0 0 -595z"/>
<path d="M337 914 c-4 -4 -7 -151 -7 -326 l0 -318 70 0 70 0 0 135 0 135 145
0 145 0 0 -135 0 -135 70 0 70 0 -2 323 -3 322 -67 3 -67 3 -3 -133 -3 -133
-140 0 -140 0 -5 130 -5 130 -60 3 c-34 2 -64 0 -68 -4z"/>
</g>
</svg>
