<?xml version="1.0" standalone="no"?>
<!DOCTYPE svg PUBLIC "-//W3C//DTD SVG 20010904//EN"
 "http://www.w3.org/TR/2001/REC-SVG-20010904/DTD/svg10.dtd">
<svg version="1.0" xmlns="http://www.w3.org/2000/svg"
 width="118.000000pt" height="118.000000pt" viewBox="0 0 118.000000 118.000000"
 preserveAspectRatio="xMidYMid meet">

<g transform="translate(0.000000,118.000000) scale(0.100000,-0.100000)"
fill="#000000" stroke="none">
<path d="M327 924 c-4 -4 -7 -151 -7 -326 l0 -318 70 0 70 0 0 99 c0 92 2 102
26 130 14 17 29 31 32 31 4 0 48 -58 97 -130 l90 -129 83 0 c73 -1 99 7 73 23
-8 5 -212 287 -234 323 -6 9 28 57 107 152 64 77 116 142 116 145 0 3 -31 6
-69 6 -81 0 -65 13 -209 -163 l-107 -130 -5 144 -5 144 -60 3 c-34 2 -64 0
-68 -4z"/>
<path d="M0 53 l0 -53 590 0 590 0 0 53 -1 52 -14 -32 c-27 -64 -21 -63 -575
-63 -554 0 -548 -1 -575 63 l-14 32 -1 -52z"/>
</g>
</svg>
