<?xml version="1.0" standalone="no"?>
<!DOCTYPE svg PUBLIC "-//W3C//DTD SVG 20010904//EN"
 "http://www.w3.org/TR/2001/REC-SVG-20010904/DTD/svg10.dtd">
<svg version="1.0" xmlns="http://www.w3.org/2000/svg"
 width="118.000000pt" height="118.000000pt" viewBox="0 0 118.000000 118.000000"
 preserveAspectRatio="xMidYMid meet">

<g transform="translate(0.000000,118.000000) scale(0.100000,-0.100000)"
fill="#000000" stroke="none">
<path d="M1107 1165 c64 -27 63 -21 63 -575 0 -547 0 -543 -58 -574 l-27 -15
48 -1 47 0 0 590 0 590 -52 0 -53 -1 32 -14z"/>
<path d="M387 914 c-4 -4 -7 -151 -7 -326 l0 -318 210 0 210 0 0 55 0 55 -140
0 -140 0 -2 268 -3 267 -60 3 c-34 2 -64 0 -68 -4z"/>
</g>
</svg>
