<?xml version="1.0" standalone="no"?>
<!DOCTYPE svg PUBLIC "-//W3C//DTD SVG 20010904//EN"
 "http://www.w3.org/TR/2001/REC-SVG-20010904/DTD/svg10.dtd">
<svg version="1.0" xmlns="http://www.w3.org/2000/svg"
 width="118.000000pt" height="118.000000pt" viewBox="0 0 118.000000 118.000000"
 preserveAspectRatio="xMidYMid meet">

<g transform="translate(0.000000,118.000000) scale(0.100000,-0.100000)"
fill="#000000" stroke="none">
<path d="M257 914 c-4 -4 -7 -151 -7 -326 l0 -318 60 0 60 0 0 211 c0 115 4
208 8 205 5 -3 44 -92 87 -198 43 -106 83 -199 88 -205 17 -22 75 -16 90 10 8
12 50 109 93 216 l79 195 3 -217 2 -217 60 0 60 0 -2 323 -3 322 -72 3 c-66 3
-73 1 -86 -20 -8 -13 -52 -117 -98 -232 -62 -156 -85 -204 -91 -190 -4 11 -46
114 -92 229 l-84 210 -74 3 c-41 1 -77 0 -81 -4z"/>
</g>
</svg>
