<?xml version="1.0" standalone="no"?>
<!DOCTYPE svg PUBLIC "-//W3C//DTD SVG 20010904//EN"
 "http://www.w3.org/TR/2001/REC-SVG-20010904/DTD/svg10.dtd">
<svg version="1.0" xmlns="http://www.w3.org/2000/svg"
 width="117.000000pt" height="117.000000pt" viewBox="0 0 117.000000 117.000000"
 preserveAspectRatio="xMidYMid meet">

<g transform="translate(0.000000,117.000000) scale(0.100000,-0.100000)"
fill="#000000" stroke="none">
<path d="M317 913 c-4 -3 -7 -150 -7 -325 l0 -318 65 0 65 0 2 211 3 211 150
-210 150 -211 58 -1 57 0 0 325 0 326 -62 -3 -63 -3 -5 -207 -5 -208 -138 193
c-75 105 -143 200 -151 210 -9 12 -27 17 -63 17 -27 0 -53 -3 -56 -7z"/>
</g>
</svg>
