<?xml version="1.0" standalone="no"?>
<!DOCTYPE svg PUBLIC "-//W3C//DTD SVG 20010904//EN"
 "http://www.w3.org/TR/2001/REC-SVG-20010904/DTD/svg10.dtd">
<svg version="1.0" xmlns="http://www.w3.org/2000/svg"
 width="118.000000pt" height="117.000000pt" viewBox="0 0 118.000000 117.000000"
 preserveAspectRatio="xMidYMid meet">

<g transform="translate(0.000000,117.000000) scale(0.100000,-0.100000)"
fill="#000000" stroke="none">
<path d="M510 916 c-154 -33 -237 -159 -228 -345 6 -109 33 -174 98 -235 112
-105 319 -102 430 5 70 68 85 114 85 254 0 105 -3 125 -23 162 -51 97 -112
143 -217 162 -69 13 -74 13 -145 -3z m171 -130 c20 -14 44 -42 55 -63 22 -47
30 -163 15 -221 -35 -128 -180 -173 -270 -83 -79 79 -84 252 -9 337 39 44 59
53 123 53 38 1 59 -5 86 -23z"/>
</g>
</svg>
