<?xml version="1.0" standalone="no"?>
<!DOCTYPE svg PUBLIC "-//W3C//DTD SVG 20010904//EN"
 "http://www.w3.org/TR/2001/REC-SVG-20010904/DTD/svg10.dtd">
<svg version="1.0" xmlns="http://www.w3.org/2000/svg"
 width="118.000000pt" height="118.000000pt" viewBox="0 0 118.000000 118.000000"
 preserveAspectRatio="xMidYMid meet">

<g transform="translate(0.000000,118.000000) scale(0.100000,-0.100000)"
fill="#000000" stroke="none">
<path d="M485 938 c-88 -31 -164 -113 -191 -206 -22 -74 -15 -209 14 -274 27
-61 80 -118 139 -148 42 -22 61 -25 157 -25 106 -1 108 -1 128 -28 18 -25 26
-27 84 -27 35 0 64 2 64 5 0 3 -18 31 -39 63 l-40 57 23 25 c59 66 81 145 74
271 -8 139 -57 216 -173 270 -50 24 -72 29 -135 28 -41 0 -88 -5 -105 -11z
m185 -123 c59 -30 89 -94 90 -190 0 -64 -14 -130 -31 -141 -6 -3 -18 1 -28 10
-17 15 -131 24 -131 10 0 -3 14 -26 31 -50 17 -25 28 -48 25 -51 -11 -12 -88
-3 -115 13 -75 44 -110 170 -80 289 28 109 140 161 239 110z"/>
</g>
</svg>
