<?xml version="1.0" standalone="no"?>
<!DOCTYPE svg PUBLIC "-//W3C//DTD SVG 20010904//EN"
 "http://www.w3.org/TR/2001/REC-SVG-20010904/DTD/svg10.dtd">
<svg version="1.0" xmlns="http://www.w3.org/2000/svg"
 width="118.000000pt" height="118.000000pt" viewBox="0 0 118.000000 118.000000"
 preserveAspectRatio="xMidYMid meet">

<g transform="translate(0.000000,118.000000) scale(0.100000,-0.100000)"
fill="#000000" stroke="none">
<path d="M527 920 c-56 -14 -90 -35 -125 -74 -35 -40 -47 -87 -39 -148 11 -83
67 -124 222 -162 142 -35 181 -84 114 -140 -57 -49 -195 -27 -214 33 -6 19
-14 21 -76 21 l-69 0 6 -27 c15 -64 49 -105 114 -139 53 -29 228 -27 291 2 59
27 96 77 111 146 11 51 10 59 -13 104 -20 40 -34 54 -79 76 -30 16 -89 35
-130 43 -118 25 -151 51 -136 111 19 75 186 67 216 -11 9 -23 15 -25 70 -25
59 0 60 1 60 28 0 51 -40 105 -100 134 -62 31 -161 43 -223 28z"/>
</g>
</svg>
