<?xml version="1.0" standalone="no"?>
<!DOCTYPE svg PUBLIC "-//W3C//DTD SVG 20010904//EN"
 "http://www.w3.org/TR/2001/REC-SVG-20010904/DTD/svg10.dtd">
<svg version="1.0" xmlns="http://www.w3.org/2000/svg"
 width="119.000000pt" height="117.000000pt" viewBox="0 0 119.000000 117.000000"
 preserveAspectRatio="xMidYMid meet">

<g transform="translate(0.000000,117.000000) scale(0.100000,-0.100000)"
fill="#000000" stroke="none">
<path d="M1117 1155 c64 -27 63 -21 63 -575 0 -532 -1 -542 -47 -569 -15 -8
-11 -10 20 -11 l37 0 0 585 0 585 -52 0 -53 -1 32 -14z"/>
<path d="M340 850 l0 -60 90 0 90 0 0 -265 0 -265 70 0 70 0 0 265 0 264 93 3
92 3 0 55 0 55 -252 3 -253 2 0 -60z"/>
</g>
</svg>
