<?xml version="1.0" standalone="no"?>
<!DOCTYPE svg PUBLIC "-//W3C//DTD SVG 20010904//EN"
 "http://www.w3.org/TR/2001/REC-SVG-20010904/DTD/svg10.dtd">
<svg version="1.0" xmlns="http://www.w3.org/2000/svg"
 width="118.000000pt" height="118.000000pt" viewBox="0 0 118.000000 118.000000"
 preserveAspectRatio="xMidYMid meet">

<g transform="translate(0.000000,118.000000) scale(0.100000,-0.100000)"
fill="#000000" stroke="none">
<path d="M327 914 c-4 -4 -7 -107 -7 -229 0 -254 7 -290 71 -353 53 -54 126
-76 227 -70 89 5 143 29 189 82 53 60 58 88 58 341 l0 230 -67 3 -68 3 0 -218
c0 -239 -5 -265 -62 -306 -32 -24 -105 -27 -143 -7 -56 30 -60 46 -65 295 l-5
230 -60 3 c-34 2 -64 0 -68 -4z"/>
</g>
</svg>
