<?xml version="1.0" standalone="no"?>
<!DOCTYPE svg PUBLIC "-//W3C//DTD SVG 20010904//EN"
 "http://www.w3.org/TR/2001/REC-SVG-20010904/DTD/svg10.dtd">
<svg version="1.0" xmlns="http://www.w3.org/2000/svg"
 width="118.000000pt" height="118.000000pt" viewBox="0 0 118.000000 118.000000"
 preserveAspectRatio="xMidYMid meet">

<g transform="translate(0.000000,118.000000) scale(0.100000,-0.100000)"
fill="#000000" stroke="none">
<path d="M179 916 c-5 -6 10 -67 110 -443 28 -106 51 -195 51 -198 0 -3 30 -5
68 -5 l67 0 18 68 c47 181 101 361 107 355 4 -5 12 -26 17 -48 20 -75 84 -310
94 -343 l11 -33 66 3 66 3 27 105 c15 58 50 193 79 300 29 107 53 204 54 215
1 18 -6 20 -65 23 l-67 3 -26 -113 c-14 -62 -35 -160 -47 -218 -23 -115 -35
-140 -45 -94 -3 16 -29 117 -58 224 l-51 195 -50 3 c-27 1 -55 -1 -61 -5 -10
-8 -50 -155 -97 -355 -12 -49 -24 -88 -27 -88 -6 0 -35 119 -82 340 l-23 105
-65 3 c-36 2 -68 0 -71 -2z"/>
</g>
</svg>
