<?xml version="1.0" standalone="no"?>
<!DOCTYPE svg PUBLIC "-//W3C//DTD SVG 20010904//EN"
 "http://www.w3.org/TR/2001/REC-SVG-20010904/DTD/svg10.dtd">
<svg version="1.0" xmlns="http://www.w3.org/2000/svg"
 width="118.000000pt" height="118.000000pt" viewBox="0 0 118.000000 118.000000"
 preserveAspectRatio="xMidYMid meet">

<g transform="translate(0.000000,118.000000) scale(0.100000,-0.100000)"
fill="#000000" stroke="none">
<path d="M320 911 c0 -5 41 -74 91 -152 50 -78 93 -148 96 -155 4 -10 -115
-211 -184 -311 l-15 -23 75 0 75 0 69 110 c37 60 70 109 73 110 3 0 37 -49 75
-110 l69 -110 78 0 c61 0 77 3 72 13 -11 18 -141 215 -175 265 l-29 43 104
159 c57 87 102 161 98 164 -11 12 -131 6 -144 -7 -7 -8 -40 -59 -72 -115 -33
-56 -62 -102 -65 -102 -3 0 -36 51 -72 113 l-65 112 -77 3 c-46 2 -77 -1 -77
-7z"/>
</g>
</svg>
