<?xml version="1.0" standalone="no"?>
<!DOCTYPE svg PUBLIC "-//W3C//DTD SVG 20010904//EN"
 "http://www.w3.org/TR/2001/REC-SVG-20010904/DTD/svg10.dtd">
<svg version="1.0" xmlns="http://www.w3.org/2000/svg"
 width="117.000000pt" height="118.000000pt" viewBox="0 0 117.000000 118.000000"
 preserveAspectRatio="xMidYMid meet">

<g transform="translate(0.000000,118.000000) scale(0.100000,-0.100000)"
fill="#000000" stroke="none">
<path d="M300 912 c0 -5 50 -98 110 -207 l110 -197 0 -119 0 -119 70 0 70 0 0
124 0 125 109 195 c60 107 106 197 103 200 -3 4 -34 6 -69 6 -73 0 -64 10
-155 -167 -29 -56 -56 -103 -59 -103 -4 0 -30 46 -59 103 -92 178 -81 167
-161 167 -38 0 -69 -4 -69 -8z"/>
</g>
</svg>
